<mxfile host="app.diagrams.net" modified="2024-01-13T10:06:17.738Z" agent="Mozilla/5.0 (Windows NT 10.0; Win64; x64) AppleWebKit/537.36 (KHTML, like Gecko) Chrome/120.0.0.0 Safari/537.36" etag="_jOYGAdd6USaSCs10PUb" version="22.1.18" type="device">
  <diagram name="Page-1" id="s9LaHRHS-n8uzc7mXqwB">
    <mxGraphModel dx="1434" dy="746" grid="1" gridSize="10" guides="1" tooltips="1" connect="1" arrows="1" fold="1" page="1" pageScale="1" pageWidth="850" pageHeight="1100" math="0" shadow="0">
      <root>
        <mxCell id="0" />
        <mxCell id="1" parent="0" />
        <mxCell id="B3dgPtwr8vZCmKvNbtLD-1" value="&lt;font style=&quot;font-size: 20px;&quot;&gt;Obj1&lt;/font&gt;" style="ellipse;whiteSpace=wrap;html=1;aspect=fixed;" vertex="1" parent="1">
          <mxGeometry x="160" y="180" width="80" height="80" as="geometry" />
        </mxCell>
        <mxCell id="B3dgPtwr8vZCmKvNbtLD-4" style="edgeStyle=orthogonalEdgeStyle;rounded=0;orthogonalLoop=1;jettySize=auto;html=1;exitX=0;exitY=0.5;exitDx=0;exitDy=0;entryX=1;entryY=0.5;entryDx=0;entryDy=0;" edge="1" parent="1" source="B3dgPtwr8vZCmKvNbtLD-2" target="B3dgPtwr8vZCmKvNbtLD-1">
          <mxGeometry relative="1" as="geometry" />
        </mxCell>
        <mxCell id="B3dgPtwr8vZCmKvNbtLD-2" value="&lt;font style=&quot;font-size: 20px;&quot;&gt;Obj2&lt;/font&gt;" style="ellipse;whiteSpace=wrap;html=1;aspect=fixed;" vertex="1" parent="1">
          <mxGeometry x="300" y="180" width="80" height="80" as="geometry" />
        </mxCell>
        <mxCell id="B3dgPtwr8vZCmKvNbtLD-5" style="edgeStyle=orthogonalEdgeStyle;rounded=0;orthogonalLoop=1;jettySize=auto;html=1;exitX=0;exitY=0.5;exitDx=0;exitDy=0;entryX=1;entryY=0.5;entryDx=0;entryDy=0;" edge="1" parent="1" source="B3dgPtwr8vZCmKvNbtLD-3" target="B3dgPtwr8vZCmKvNbtLD-2">
          <mxGeometry relative="1" as="geometry" />
        </mxCell>
        <mxCell id="B3dgPtwr8vZCmKvNbtLD-3" value="&lt;font style=&quot;font-size: 20px;&quot;&gt;Obj3&lt;/font&gt;" style="ellipse;whiteSpace=wrap;html=1;aspect=fixed;" vertex="1" parent="1">
          <mxGeometry x="440" y="180" width="80" height="80" as="geometry" />
        </mxCell>
        <mxCell id="B3dgPtwr8vZCmKvNbtLD-7" style="edgeStyle=orthogonalEdgeStyle;rounded=0;orthogonalLoop=1;jettySize=auto;html=1;exitX=0;exitY=0.5;exitDx=0;exitDy=0;entryX=1;entryY=0.5;entryDx=0;entryDy=0;" edge="1" parent="1" source="B3dgPtwr8vZCmKvNbtLD-6" target="B3dgPtwr8vZCmKvNbtLD-3">
          <mxGeometry relative="1" as="geometry" />
        </mxCell>
        <mxCell id="B3dgPtwr8vZCmKvNbtLD-6" value="&lt;font style=&quot;font-size: 20px;&quot;&gt;allgc&lt;/font&gt;" style="rounded=0;whiteSpace=wrap;html=1;" vertex="1" parent="1">
          <mxGeometry x="590" y="190" width="120" height="60" as="geometry" />
        </mxCell>
        <mxCell id="B3dgPtwr8vZCmKvNbtLD-8" value="&lt;font style=&quot;font-size: 20px;&quot;&gt;新增一个GC object Obj4&lt;/font&gt;" style="text;strokeColor=none;align=center;fillColor=none;html=1;verticalAlign=middle;whiteSpace=wrap;rounded=0;" vertex="1" parent="1">
          <mxGeometry x="300" y="330" width="230" height="30" as="geometry" />
        </mxCell>
        <mxCell id="B3dgPtwr8vZCmKvNbtLD-9" value="" style="shape=flexArrow;endArrow=classic;html=1;rounded=0;" edge="1" parent="1">
          <mxGeometry width="50" height="50" relative="1" as="geometry">
            <mxPoint x="410" y="280" as="sourcePoint" />
            <mxPoint x="410" y="320" as="targetPoint" />
          </mxGeometry>
        </mxCell>
        <mxCell id="B3dgPtwr8vZCmKvNbtLD-11" value="" style="shape=flexArrow;endArrow=classic;html=1;rounded=0;" edge="1" parent="1">
          <mxGeometry width="50" height="50" relative="1" as="geometry">
            <mxPoint x="410" y="370" as="sourcePoint" />
            <mxPoint x="410" y="410" as="targetPoint" />
          </mxGeometry>
        </mxCell>
        <mxCell id="B3dgPtwr8vZCmKvNbtLD-12" value="&lt;font style=&quot;font-size: 20px;&quot;&gt;Obj1&lt;/font&gt;" style="ellipse;whiteSpace=wrap;html=1;aspect=fixed;" vertex="1" parent="1">
          <mxGeometry x="90" y="430" width="80" height="80" as="geometry" />
        </mxCell>
        <mxCell id="B3dgPtwr8vZCmKvNbtLD-13" style="edgeStyle=orthogonalEdgeStyle;rounded=0;orthogonalLoop=1;jettySize=auto;html=1;exitX=0;exitY=0.5;exitDx=0;exitDy=0;entryX=1;entryY=0.5;entryDx=0;entryDy=0;" edge="1" parent="1" source="B3dgPtwr8vZCmKvNbtLD-14" target="B3dgPtwr8vZCmKvNbtLD-12">
          <mxGeometry relative="1" as="geometry" />
        </mxCell>
        <mxCell id="B3dgPtwr8vZCmKvNbtLD-14" value="&lt;font style=&quot;font-size: 20px;&quot;&gt;Obj2&lt;/font&gt;" style="ellipse;whiteSpace=wrap;html=1;aspect=fixed;" vertex="1" parent="1">
          <mxGeometry x="230" y="430" width="80" height="80" as="geometry" />
        </mxCell>
        <mxCell id="B3dgPtwr8vZCmKvNbtLD-15" style="edgeStyle=orthogonalEdgeStyle;rounded=0;orthogonalLoop=1;jettySize=auto;html=1;exitX=0;exitY=0.5;exitDx=0;exitDy=0;entryX=1;entryY=0.5;entryDx=0;entryDy=0;" edge="1" parent="1" source="B3dgPtwr8vZCmKvNbtLD-16" target="B3dgPtwr8vZCmKvNbtLD-14">
          <mxGeometry relative="1" as="geometry" />
        </mxCell>
        <mxCell id="B3dgPtwr8vZCmKvNbtLD-16" value="&lt;font style=&quot;font-size: 20px;&quot;&gt;Obj3&lt;/font&gt;" style="ellipse;whiteSpace=wrap;html=1;aspect=fixed;" vertex="1" parent="1">
          <mxGeometry x="370" y="430" width="80" height="80" as="geometry" />
        </mxCell>
        <mxCell id="B3dgPtwr8vZCmKvNbtLD-21" style="edgeStyle=orthogonalEdgeStyle;rounded=0;orthogonalLoop=1;jettySize=auto;html=1;exitX=0;exitY=0.5;exitDx=0;exitDy=0;entryX=1;entryY=0.5;entryDx=0;entryDy=0;" edge="1" parent="1" source="B3dgPtwr8vZCmKvNbtLD-18" target="B3dgPtwr8vZCmKvNbtLD-19">
          <mxGeometry relative="1" as="geometry" />
        </mxCell>
        <mxCell id="B3dgPtwr8vZCmKvNbtLD-18" value="&lt;font style=&quot;font-size: 20px;&quot;&gt;allgc&lt;/font&gt;" style="rounded=0;whiteSpace=wrap;html=1;" vertex="1" parent="1">
          <mxGeometry x="640" y="440" width="120" height="60" as="geometry" />
        </mxCell>
        <mxCell id="B3dgPtwr8vZCmKvNbtLD-20" style="edgeStyle=orthogonalEdgeStyle;rounded=0;orthogonalLoop=1;jettySize=auto;html=1;exitX=0;exitY=0.5;exitDx=0;exitDy=0;entryX=1;entryY=0.5;entryDx=0;entryDy=0;" edge="1" parent="1" source="B3dgPtwr8vZCmKvNbtLD-19" target="B3dgPtwr8vZCmKvNbtLD-16">
          <mxGeometry relative="1" as="geometry" />
        </mxCell>
        <mxCell id="B3dgPtwr8vZCmKvNbtLD-19" value="&lt;font style=&quot;font-size: 20px;&quot;&gt;Obj4&lt;/font&gt;" style="ellipse;whiteSpace=wrap;html=1;aspect=fixed;" vertex="1" parent="1">
          <mxGeometry x="510" y="430" width="80" height="80" as="geometry" />
        </mxCell>
      </root>
    </mxGraphModel>
  </diagram>
</mxfile>
